<?xml version="1.0" encoding="UTF-8" standalone="no"?>
<!DOCTYPE svg PUBLIC "-//W3C//DTD SVG 1.0//EN" "http://www.w3.org/TR/2001/PR-SVG-20010719/DTD/svg10.dtd">
<svg width="28cm" height="13cm" viewBox="-2 9 542 255" xmlns="http://www.w3.org/2000/svg" xmlns:xlink="http://www.w3.org/1999/xlink">
  <g id="Background">
    <g>
      <path style="fill: none; stroke-opacity: 1; stroke-width: 1; stroke-dasharray: 2; stroke: #996687" d="M 49.5298 46.5832 C 39.5298,186.583 185.877,175.154 224.48,126.9"/>
      <polyline style="fill: none; stroke-opacity: 1; stroke-width: 1; stroke: #996687" points="223.632,133.242 225.179,126.027 218.479,129.119 "/>
    </g>
    <text font-size="9.03111" style="fill: #2d5ce6; fill-opacity: 1; stroke: none;text-anchor:middle;font-family:sans-serif;font-style:normal;font-weight:normal" x="150" y="17.482">
      <tspan x="150" y="17.482">PR#1 building...</tspan>
      <tspan x="150" y="28.7709"></tspan>
    </text>
    <g>
      <line style="fill: none; stroke-opacity: 1; stroke-width: 1; stroke: #474499" x1="10" y1="170" x2="537.764" y2="170"/>
      <line style="fill: none; stroke-opacity: 1; stroke-width: 1; stroke: #474499" x1="0" y1="170" x2="2" y2="170"/>
      <line style="fill: none; stroke-opacity: 1; stroke-width: 1; stroke: #474499" x1="3.33333" y1="170" x2="5.33333" y2="170"/>
      <line style="fill: none; stroke-opacity: 1; stroke-width: 1; stroke: #474499" x1="6.66667" y1="170" x2="8.66667" y2="170"/>
      <polyline style="fill: none; stroke-opacity: 1; stroke-width: 1; stroke: #474499" points="528.882,175 538.882,170 528.882,165 "/>
    </g>
    <text font-size="12.4178" style="fill: #474499; fill-opacity: 1; stroke: none;text-anchor:middle;font-family:sans-serif;font-style:normal;font-weight:normal" x="405" y="181.526">
      <tspan x="405" y="181.526">. . . t i m e . . .</tspan>
    </text>
    <text font-size="7.90222" style="fill: #2d5ce6; fill-opacity: 1; stroke: none;text-anchor:start;font-family:sans-serif;font-style:normal;font-weight:normal" x="20" y="31.335">
      <tspan x="20" y="31.335">rebase</tspan>
      <tspan x="20" y="41.2127">&amp; merge</tspan>
    </text>
    <g>
      <line style="fill: none; stroke-opacity: 1; stroke-width: 1; stroke-dasharray: 6.6; stroke: #2d5ce6" x1="20" y1="190" x2="20" y2="52.2361"/>
      <polyline style="fill: none; stroke-opacity: 1; stroke-width: 1; stroke: #2d5ce6" points="23.3,57.718 20,51.118 16.7,57.718 "/>
    </g>
    <text font-size="9.03111" style="fill: #2d5ce6; fill-opacity: 1; stroke: none;text-anchor:start;font-family:sans-serif;font-style:normal;font-weight:normal" x="0" y="190">
      <tspan x="0" y="190">#1</tspan>
      <tspan x="0" y="201.289">@hoff merge</tspan>
    </text>
    <g>
      <line style="fill: none; stroke-opacity: 1; stroke-width: 1; stroke-dasharray: 6.6; stroke: #e67216" x1="80" y1="220" x2="80" y2="102.236"/>
      <polyline style="fill: none; stroke-opacity: 1; stroke-width: 1; stroke: #e67216" points="83.3,107.718 80,101.118 76.7,107.718 "/>
    </g>
    <text font-size="9.03111" style="fill: #e67216; fill-opacity: 1; stroke: none;text-anchor:start;font-family:sans-serif;font-style:normal;font-weight:normal" x="60" y="220">
      <tspan x="60" y="220">#2</tspan>
      <tspan x="60" y="231.289">@hoff merge</tspan>
    </text>
    <g>
      <line style="fill: none; stroke-opacity: 1; stroke-width: 1; stroke-dasharray: 6.6; stroke: #e62d9e" x1="140" y1="250" x2="140" y2="152.236"/>
      <polyline style="fill: none; stroke-opacity: 1; stroke-width: 1; stroke: #e62d9e" points="143.3,157.718 140,151.118 136.7,157.718 "/>
    </g>
    <text font-size="9.03111" style="fill: #e62d9e; fill-opacity: 1; stroke: none;text-anchor:start;font-family:sans-serif;font-style:normal;font-weight:normal" x="120" y="250">
      <tspan x="120" y="250">#3</tspan>
      <tspan x="120" y="261.289">@hoff merge</tspan>
    </text>
    <g>
      <line style="fill: none; stroke-opacity: 1; stroke-width: 1; stroke: #2d5ce6" x1="20" y1="20" x2="280" y2="20"/>
      <path style="fill: #2d5ce6; fill-opacity: 1; stroke-opacity: 1; stroke-width: 1; stroke: #2d5ce6" fill-rule="evenodd" d="M 20 20 C 20,18.75 21.25,17.5 22.5,17.5 C 23.75,17.5 25,18.75 25,20 C 25,21.25 23.75,22.5 22.5,22.5 C 21.25,22.5 20,21.25 20,20z"/>
    </g>
    <text font-size="9.03111" style="fill: #e67216; fill-opacity: 1; stroke: none;text-anchor:middle;font-family:sans-serif;font-style:normal;font-weight:normal" x="150" y="67.482">
      <tspan x="150" y="67.482">PR#2 building...</tspan>
      <tspan x="150" y="78.7709"></tspan>
    </text>
    <text font-size="7.90222" style="fill: #e67216; fill-opacity: 1; stroke: none;text-anchor:start;font-family:sans-serif;font-style:normal;font-weight:normal" x="80" y="83.335">
      <tspan x="80" y="83.335">speculative</tspan>
      <tspan x="80" y="93.2127">rebase &amp; merge</tspan>
    </text>
    <g>
      <line style="fill: none; stroke-opacity: 1; stroke-width: 1; stroke: #e67216" x1="80" y1="70" x2="220" y2="70"/>
      <path style="fill: #e67216; fill-opacity: 1; stroke-opacity: 1; stroke-width: 1; stroke: #e67216" fill-rule="evenodd" d="M 80 70 C 80,68.75 81.25,67.5 82.5,67.5 C 83.75,67.5 85,68.75 85,70 C 85,71.25 83.75,72.5 82.5,72.5 C 81.25,72.5 80,71.25 80,70z"/>
    </g>
    <text font-size="6.77333" style="fill: #e62d9e; fill-opacity: 1; stroke: none;text-anchor:middle;font-family:sans-serif;font-style:normal;font-weight:normal" x="180" y="109.645">
      <tspan x="180" y="109.645">PR#3</tspan>
      <tspan x="180" y="118.112">building...</tspan>
      <tspan x="180" y="126.578"></tspan>
      <tspan x="180" y="135.045"></tspan>
    </text>
    <text font-size="7.90222" style="fill: #e62d9e; fill-opacity: 1; stroke: none;text-anchor:start;font-family:sans-serif;font-style:normal;font-weight:normal" x="432" y="131.335">
      <tspan x="432" y="131.335">push</tspan>
      <tspan x="432" y="141.213">new master</tspan>
    </text>
    <text font-size="7.90222" style="fill: #e62d9e; fill-opacity: 1; stroke: none;text-anchor:start;font-family:sans-serif;font-style:normal;font-weight:normal" x="140" y="131.335">
      <tspan x="140" y="131.335">speculative</tspan>
      <tspan x="140" y="141.213">rebase&amp;merge</tspan>
      <tspan x="140" y="151.091">atop #2</tspan>
    </text>
    <g>
      <line style="fill: none; stroke-opacity: 1; stroke-width: 1; stroke: #e62d9e" x1="140" y1="120" x2="220" y2="120"/>
      <path style="fill: #e62d9e; fill-opacity: 1; stroke-opacity: 1; stroke-width: 1; stroke: #e62d9e" fill-rule="evenodd" d="M 140 120 C 140,118.75 141.25,117.5 142.5,117.5 C 143.75,117.5 145,118.75 145,120 C 145,121.25 143.75,122.5 142.5,122.5 C 141.25,122.5 140,121.25 140,120z"/>
    </g>
    <text font-size="7.90222" style="fill: #e67216; fill-opacity: 1; stroke: none;text-anchor:start;font-family:sans-serif;font-style:normal;font-weight:normal" x="210" y="197.335">
      <tspan x="210" y="197.335">#2</tspan>
      <tspan x="210" y="207.213">speculative</tspan>
      <tspan x="210" y="217.091">build failed</tspan>
    </text>
    <g>
      <line style="fill: none; stroke-opacity: 1; stroke-width: 1; stroke-dasharray: 6.6; stroke: #e67216" x1="220" y1="80" x2="220" y2="187.764"/>
      <polyline style="fill: none; stroke-opacity: 1; stroke-width: 1; stroke: #e67216" points="216.7,182.282 220,188.882 223.3,182.282 "/>
    </g>
    <g>
      <line style="fill: none; stroke-opacity: 1; stroke-width: 2; stroke-linecap: round; stroke: #a8270d" x1="215" y1="75" x2="225" y2="65"/>
      <line style="fill: none; stroke-opacity: 1; stroke-width: 2; stroke-linecap: round; stroke: #a8270d" x1="215" y1="65" x2="225" y2="75"/>
    </g>
    <g>
      <line style="fill: none; stroke-opacity: 1; stroke-width: 1; stroke: #e62d9e" x1="292" y1="120" x2="440" y2="120"/>
      <path style="fill: #e62d9e; fill-opacity: 1; stroke-opacity: 1; stroke-width: 1; stroke: #e62d9e" fill-rule="evenodd" d="M 292 120 C 292,118.75 293.25,117.5 294.5,117.5 C 295.75,117.5 297,118.75 297,120 C 297,121.25 295.75,122.5 294.5,122.5 C 293.25,122.5 292,121.25 292,120z"/>
      <path style="fill: #e62d9e; fill-opacity: 1; stroke-opacity: 1; stroke-width: 1; stroke: #e62d9e" fill-rule="evenodd" d="M 440 120 C 440,121.25 438.75,122.5 437.5,122.5 C 436.25,122.5 435,121.25 435,120 C 435,118.75 436.25,117.5 437.5,117.5 C 438.75,117.5 440,118.75 440,120z"/>
    </g>
    <text font-size="7.90222" style="fill: #e62d9e; fill-opacity: 1; stroke: none;text-anchor:start;font-family:sans-serif;font-style:normal;font-weight:normal" x="228" y="131.335">
      <tspan x="228" y="131.335">speculative</tspan>
      <tspan x="228" y="141.213">r&amp;m</tspan>
      <tspan x="228" y="151.091">atop #1</tspan>
    </text>
    <text font-size="5.64444" style="fill: #e62d9e; fill-opacity: 1; stroke: none;text-anchor:start;font-family:sans-serif;font-style:normal;font-weight:normal" x="210" y="111.239">
      <tspan x="210" y="111.239">cancel</tspan>
    </text>
    <g>
      <line style="fill: none; stroke-opacity: 1; stroke-width: 1; stroke-dasharray: 4; stroke: #474499" x1="220" y1="70" x2="277.764" y2="70"/>
      <polyline style="fill: none; stroke-opacity: 1; stroke-width: 1; stroke: #474499" points="272.282,73.3 278.882,70 272.282,66.7 "/>
    </g>
    <text font-size="9.03111" style="fill: #474499; fill-opacity: 1; stroke: none;text-anchor:middle;font-family:sans-serif;font-style:normal;font-weight:normal" x="250" y="78.3828">
      <tspan x="250" y="78.3828">... wait...</tspan>
    </text>
    <text font-size="7.90222" style="fill: #2d5ce6; fill-opacity: 1; stroke: none;text-anchor:start;font-family:sans-serif;font-style:normal;font-weight:normal" x="270" y="197.335">
      <tspan x="270" y="197.335">#1</tspan>
      <tspan x="270" y="207.213">build failed</tspan>
    </text>
    <g>
      <line style="fill: none; stroke-opacity: 1; stroke-width: 1; stroke-dasharray: 4; stroke: #2d5ce6" x1="280" y1="28" x2="280" y2="187.764"/>
      <polyline style="fill: none; stroke-opacity: 1; stroke-width: 1; stroke: #2d5ce6" points="276.7,182.282 280,188.882 283.3,182.282 "/>
    </g>
    <g>
      <line style="fill: none; stroke-opacity: 1; stroke-width: 1; stroke-dasharray: 2; stroke: #997356" x1="54.6669" y1="44.6669" x2="73.752" y2="63.752"/>
      <polyline style="fill: none; stroke-opacity: 1; stroke-width: 1; stroke: #997356" points="67.5422,62.2091 74.5425,64.5425 72.2091,57.5422 "/>
    </g>
    <g>
      <line style="fill: none; stroke-opacity: 1; stroke-width: 1; stroke-dasharray: 2; stroke: #996687" x1="120.667" y1="100.667" x2="133.752" y2="113.752"/>
      <polyline style="fill: none; stroke-opacity: 1; stroke-width: 1; stroke: #996687" points="127.542,112.209 134.543,114.543 132.209,107.542 "/>
    </g>
    <g transform="matrix(1,0,0,1,245,107)">
      <line style="fill: none; stroke-opacity: 1; stroke-width: 2; stroke-linecap: round; stroke: #11b349" x1="183" y1="9" x2="190" y2="2"/>
      <line style="fill: none; stroke-opacity: 1; stroke-width: 2; stroke-linecap: round; stroke: #11b349" x1="180" y1="6" x2="183" y2="9"/>
    </g>
    <g>
      <line style="fill: none; stroke-opacity: 1; stroke-width: 2; stroke-linecap: round; stroke: #a8270d" x1="275" y1="25" x2="285" y2="15"/>
      <line style="fill: none; stroke-opacity: 1; stroke-width: 2; stroke-linecap: round; stroke: #a8270d" x1="275" y1="15" x2="285" y2="25"/>
    </g>
    <text font-size="7.90222" style="fill: #e67216; fill-opacity: 1; stroke: none;text-anchor:start;font-family:sans-serif;font-style:normal;font-weight:normal" x="270" y="217.335">
      <tspan x="270" y="217.335">#2</tspan>
      <tspan x="270" y="227.213">CI job started</tspan>
    </text>
    <g>
      <line style="fill: none; stroke-opacity: 1; stroke-width: 1; stroke: #e67216" x1="284" y1="70" x2="420" y2="70"/>
      <path style="fill: #e67216; fill-opacity: 1; stroke-opacity: 1; stroke-width: 1; stroke: #e67216" fill-rule="evenodd" d="M 284 70 C 284,68.75 285.25,67.5 286.5,67.5 C 287.75,67.5 289,68.75 289,70 C 289,71.25 287.75,72.5 286.5,72.5 C 285.25,72.5 284,71.25 284,70z"/>
      <path style="fill: #e67216; fill-opacity: 1; stroke-opacity: 1; stroke-width: 1; stroke: #e67216" fill-rule="evenodd" d="M 420 70 C 420,71.25 418.75,72.5 417.5,72.5 C 416.25,72.5 415,71.25 415,70 C 415,68.75 416.25,67.5 417.5,67.5 C 418.75,67.5 420,68.75 420,70z"/>
    </g>
    <text font-size="9.03111" style="fill: #e67216; fill-opacity: 1; stroke: none;text-anchor:middle;font-family:sans-serif;font-style:normal;font-weight:normal" x="352" y="67.482">
      <tspan x="352" y="67.482">PR#2 building...</tspan>
      <tspan x="352" y="78.7709"></tspan>
    </text>
    <g transform="matrix(1,0,0,1,225,57)">
      <line style="fill: none; stroke-opacity: 1; stroke-width: 2; stroke-linecap: round; stroke: #11b349" x1="183" y1="9" x2="190" y2="2"/>
      <line style="fill: none; stroke-opacity: 1; stroke-width: 2; stroke-linecap: round; stroke: #11b349" x1="180" y1="6" x2="183" y2="9"/>
    </g>
    <text font-size="7.90222" style="fill: #e67216; fill-opacity: 1; stroke: none;text-anchor:start;font-family:sans-serif;font-style:normal;font-weight:normal" x="284" y="81.335">
      <tspan x="284" y="81.335">rebase</tspan>
      <tspan x="284" y="91.2127">&amp; merge</tspan>
    </text>
    <text font-size="7.90222" style="fill: #e67216; fill-opacity: 1; stroke: none;text-anchor:start;font-family:sans-serif;font-style:normal;font-weight:normal" x="412" y="81.335">
      <tspan x="412" y="81.335">push</tspan>
      <tspan x="412" y="91.2127">new master</tspan>
    </text>
    <text font-size="7.90222" style="fill: #e62d9e; fill-opacity: 1; stroke: none;text-anchor:start;font-family:sans-serif;font-style:normal;font-weight:normal" x="292" y="131.335">
      <tspan x="292" y="131.335">speculative</tspan>
      <tspan x="292" y="141.213">r&amp;m</tspan>
      <tspan x="292" y="151.091">atop #2</tspan>
    </text>
    <g>
      <line style="fill: none; stroke-opacity: 1; stroke-width: 1; stroke: #e62d9e" x1="228" y1="120" x2="280" y2="120"/>
      <path style="fill: #e62d9e; fill-opacity: 1; stroke-opacity: 1; stroke-width: 1; stroke: #e62d9e" fill-rule="evenodd" d="M 228 120 C 228,118.75 229.25,117.5 230.5,117.5 C 231.75,117.5 233,118.75 233,120 C 233,121.25 231.75,122.5 230.5,122.5 C 229.25,122.5 228,121.25 228,120z"/>
    </g>
    <text font-size="7.90222" style="fill: #e62d9e; fill-opacity: 1; stroke: none;text-anchor:start;font-family:sans-serif;font-style:normal;font-weight:normal" x="210" y="231.335">
      <tspan x="210" y="231.335">#3</tspan>
      <tspan x="210" y="241.213">speculative</tspan>
      <tspan x="210" y="251.091">build failed</tspan>
    </text>
    <text font-size="7.90222" style="fill: #e62d9e; fill-opacity: 1; stroke: none;text-anchor:start;font-family:sans-serif;font-style:normal;font-weight:normal" x="270" y="237.335">
      <tspan x="270" y="237.335">#3</tspan>
      <tspan x="270" y="247.213">speculative</tspan>
      <tspan x="270" y="257.091">build failed</tspan>
    </text>
    <text font-size="12.4178" style="fill: #474499; fill-opacity: 1; stroke: none;text-anchor:middle;font-family:sans-serif;font-style:normal;font-weight:normal" x="135" y="181.526">
      <tspan x="135" y="181.526">. . . t i m e . . .</tspan>
    </text>
    <g>
      <line style="fill: none; stroke-opacity: 1; stroke-width: 1; stroke-dasharray: 4; stroke: #2d5ce6" x1="320" y1="200" x2="447.764" y2="200"/>
      <polyline style="fill: none; stroke-opacity: 1; stroke-width: 1; stroke: #2d5ce6" points="442.282,203.3 448.882,200 442.282,196.7 "/>
    </g>
    <text font-size="7.90222" style="fill: #2d5ce6; fill-opacity: 1; stroke: none;text-anchor:middle;font-family:sans-serif;font-style:normal;font-weight:normal" x="385" y="207.335">
      <tspan x="385" y="207.335">... dev fixes PR#1...</tspan>
    </text>
    <text font-size="6.77333" style="fill: #2d5ce6; fill-opacity: 1; stroke: none;text-anchor:middle;font-family:sans-serif;font-style:normal;font-weight:normal" x="505" y="18.1115">
      <tspan x="505" y="18.1115">PR#1 build...</tspan>
      <tspan x="505" y="26.5782"></tspan>
    </text>
    <text font-size="7.90222" style="fill: #2d5ce6; fill-opacity: 1; stroke: none;text-anchor:start;font-family:sans-serif;font-style:normal;font-weight:normal" x="480" y="31.335">
      <tspan x="480" y="31.335">rebase</tspan>
      <tspan x="480" y="41.2127">&amp; merge</tspan>
    </text>
    <g>
      <line style="fill: none; stroke-opacity: 1; stroke-width: 1; stroke-dasharray: 6.6; stroke: #2d5ce6" x1="480" y1="190" x2="480" y2="52.2361"/>
      <polyline style="fill: none; stroke-opacity: 1; stroke-width: 1; stroke: #2d5ce6" points="483.3,57.718 480,51.118 476.7,57.718 "/>
    </g>
    <text font-size="9.03111" style="fill: #2d5ce6; fill-opacity: 1; stroke: none;text-anchor:start;font-family:sans-serif;font-style:normal;font-weight:normal" x="460" y="190">
      <tspan x="460" y="190">#1</tspan>
      <tspan x="460" y="201.289">@hoff merge</tspan>
    </text>
    <g>
      <line style="fill: none; stroke-opacity: 1; stroke-width: 1; stroke: #2d5ce6" x1="480" y1="20" x2="520" y2="20"/>
      <path style="fill: #2d5ce6; fill-opacity: 1; stroke-opacity: 1; stroke-width: 1; stroke: #2d5ce6" fill-rule="evenodd" d="M 480 20 C 480,18.75 481.25,17.5 482.5,17.5 C 483.75,17.5 485,18.75 485,20 C 485,21.25 483.75,22.5 482.5,22.5 C 481.25,22.5 480,21.25 480,20z"/>
      <line style="fill: none; stroke-opacity: 1; stroke-width: 1; stroke: #2d5ce6" x1="530" y1="20" x2="528" y2="20"/>
      <line style="fill: none; stroke-opacity: 1; stroke-width: 1; stroke: #2d5ce6" x1="526.667" y1="20" x2="524.667" y2="20"/>
      <line style="fill: none; stroke-opacity: 1; stroke-width: 1; stroke: #2d5ce6" x1="523.333" y1="20" x2="521.333" y2="20"/>
    </g>
    <text font-size="6.77333" style="fill: #e62d9e; fill-opacity: 1; stroke: none;text-anchor:middle;font-family:sans-serif;font-style:normal;font-weight:normal" x="254" y="109.645">
      <tspan x="254" y="109.645">PR#3</tspan>
      <tspan x="254" y="118.112">building...</tspan>
      <tspan x="254" y="126.578"></tspan>
      <tspan x="254" y="135.045"></tspan>
    </text>
    <text font-size="9.03111" style="fill: #e62d9e; fill-opacity: 1; stroke: none;text-anchor:middle;font-family:sans-serif;font-style:normal;font-weight:normal" x="366" y="117.482">
      <tspan x="366" y="117.482">PR#3 building...</tspan>
      <tspan x="366" y="128.771"></tspan>
    </text>
    <g>
      <line style="fill: none; stroke-opacity: 1; stroke-width: 1; stroke-dasharray: 2; stroke: #996687" x1="290.439" y1="96.5854" x2="291.412" y2="111.184"/>
      <polyline style="fill: none; stroke-opacity: 1; stroke-width: 1; stroke: #996687" points="287.755,105.933 291.487,112.299 294.34,105.494 "/>
    </g>
    <g>
      <line style="fill: none; stroke-opacity: 1; stroke-width: 2; stroke-linecap: round; stroke: #a8270d" x1="215" y1="115" x2="225" y2="125"/>
      <ellipse style="fill: none; stroke-opacity: 1; stroke-width: 2; stroke: #a8270d" cx="220" cy="120" rx="5" ry="5"/>
    </g>
    <g>
      <line style="fill: none; stroke-opacity: 1; stroke-width: 2; stroke-linecap: round; stroke: #a8270d" x1="275" y1="115" x2="285" y2="125"/>
      <ellipse style="fill: none; stroke-opacity: 1; stroke-width: 2; stroke: #a8270d" cx="280" cy="120" rx="5" ry="5"/>
    </g>
    <text font-size="5.64444" style="fill: #e62d9e; fill-opacity: 1; stroke: none;text-anchor:start;font-family:sans-serif;font-style:normal;font-weight:normal" x="270" y="111.239">
      <tspan x="270" y="111.239">cancel</tspan>
    </text>
  </g>
</svg>
