<?xml version="1.0" encoding="UTF-8" standalone="no"?>
<!DOCTYPE svg PUBLIC "-//W3C//DTD SVG 1.0//EN" "http://www.w3.org/TR/2001/PR-SVG-20010719/DTD/svg10.dtd">
<svg width="28cm" height="13cm" viewBox="-2 7 542 256" xmlns="http://www.w3.org/2000/svg" xmlns:xlink="http://www.w3.org/1999/xlink">
  <g id="Background">
    <text font-size="9.03111" style="fill: #2d5ce6; fill-opacity: 1; stroke: none;text-anchor:middle;font-family:sans-serif;font-style:normal;font-weight:normal" x="220" y="17.482">
      <tspan x="220" y="17.482">PR#1 building...</tspan>
      <tspan x="220" y="28.7709"></tspan>
    </text>
    <g>
      <line style="fill: none; stroke-opacity: 1; stroke-width: 1; stroke: #474499" x1="10" y1="170" x2="537.764" y2="170"/>
      <line style="fill: none; stroke-opacity: 1; stroke-width: 1; stroke: #474499" x1="0" y1="170" x2="2" y2="170"/>
      <line style="fill: none; stroke-opacity: 1; stroke-width: 1; stroke: #474499" x1="3.33333" y1="170" x2="5.33333" y2="170"/>
      <line style="fill: none; stroke-opacity: 1; stroke-width: 1; stroke: #474499" x1="6.66667" y1="170" x2="8.66667" y2="170"/>
      <polyline style="fill: none; stroke-opacity: 1; stroke-width: 1; stroke: #474499" points="528.882,175 538.882,170 528.882,165 "/>
    </g>
    <text font-size="12.4178" style="fill: #474499; fill-opacity: 1; stroke: none;text-anchor:middle;font-family:sans-serif;font-style:normal;font-weight:normal" x="270" y="181.526">
      <tspan x="270" y="181.526">. . . t i m e . . .</tspan>
    </text>
    <text font-size="7.90222" style="fill: #2d5ce6; fill-opacity: 1; stroke: none;text-anchor:start;font-family:sans-serif;font-style:normal;font-weight:normal" x="412" y="31.335">
      <tspan x="412" y="31.335">push</tspan>
      <tspan x="412" y="41.2127">new master</tspan>
    </text>
    <text font-size="7.90222" style="fill: #2d5ce6; fill-opacity: 1; stroke: none;text-anchor:start;font-family:sans-serif;font-style:normal;font-weight:normal" x="20" y="31.335">
      <tspan x="20" y="31.335">rebase</tspan>
      <tspan x="20" y="41.2127">&amp; merge</tspan>
    </text>
    <g>
      <line style="fill: none; stroke-opacity: 1; stroke-width: 1; stroke-dasharray: 6.6; stroke: #2d5ce6" x1="20" y1="190" x2="20" y2="52.2361"/>
      <polyline style="fill: none; stroke-opacity: 1; stroke-width: 1; stroke: #2d5ce6" points="23.3,57.718 20,51.118 16.7,57.718 "/>
    </g>
    <text font-size="9.03111" style="fill: #2d5ce6; fill-opacity: 1; stroke: none;text-anchor:start;font-family:sans-serif;font-style:normal;font-weight:normal" x="0" y="190">
      <tspan x="0" y="190">#1</tspan>
      <tspan x="0" y="201.289">@hoff merge</tspan>
    </text>
    <g>
      <line style="fill: none; stroke-opacity: 1; stroke-width: 1; stroke-dasharray: 6.6; stroke: #e67216" x1="80" y1="220" x2="80" y2="102.236"/>
      <polyline style="fill: none; stroke-opacity: 1; stroke-width: 1; stroke: #e67216" points="83.3,107.718 80,101.118 76.7,107.718 "/>
    </g>
    <text font-size="9.03111" style="fill: #e67216; fill-opacity: 1; stroke: none;text-anchor:start;font-family:sans-serif;font-style:normal;font-weight:normal" x="60" y="220">
      <tspan x="60" y="220">#2</tspan>
      <tspan x="60" y="231.289">@hoff merge</tspan>
    </text>
    <g>
      <line style="fill: none; stroke-opacity: 1; stroke-width: 1; stroke-dasharray: 6.6; stroke: #e62d9e" x1="140" y1="250" x2="140" y2="152.236"/>
      <polyline style="fill: none; stroke-opacity: 1; stroke-width: 1; stroke: #e62d9e" points="143.3,157.718 140,151.118 136.7,157.718 "/>
    </g>
    <text font-size="9.03111" style="fill: #e62d9e; fill-opacity: 1; stroke: none;text-anchor:start;font-family:sans-serif;font-style:normal;font-weight:normal" x="120" y="250">
      <tspan x="120" y="250">#3</tspan>
      <tspan x="120" y="261.289">@hoff merge</tspan>
    </text>
    <g>
      <line style="fill: none; stroke-opacity: 1; stroke-width: 1; stroke: #2d5ce6" x1="20" y1="20" x2="420" y2="20"/>
      <path style="fill: #2d5ce6; fill-opacity: 1; stroke-opacity: 1; stroke-width: 1; stroke: #2d5ce6" fill-rule="evenodd" d="M 20 20 C 20,18.75 21.25,17.5 22.5,17.5 C 23.75,17.5 25,18.75 25,20 C 25,21.25 23.75,22.5 22.5,22.5 C 21.25,22.5 20,21.25 20,20z"/>
      <path style="fill: #2d5ce6; fill-opacity: 1; stroke-opacity: 1; stroke-width: 1; stroke: #2d5ce6" fill-rule="evenodd" d="M 420 20 C 420,21.25 418.75,22.5 417.5,22.5 C 416.25,22.5 415,21.25 415,20 C 415,18.75 416.25,17.5 417.5,17.5 C 418.75,17.5 420,18.75 420,20z"/>
    </g>
    <text font-size="9.03111" style="fill: #e67216; fill-opacity: 1; stroke: none;text-anchor:middle;font-family:sans-serif;font-style:normal;font-weight:normal" x="220" y="67.482">
      <tspan x="220" y="67.482">PR#2 building...</tspan>
      <tspan x="220" y="78.7709"></tspan>
    </text>
    <text font-size="7.90222" style="fill: #e67216; fill-opacity: 1; stroke: none;text-anchor:start;font-family:sans-serif;font-style:normal;font-weight:normal" x="420" y="79.335">
      <tspan x="420" y="79.335">push</tspan>
      <tspan x="420" y="89.2127">new master</tspan>
    </text>
    <text font-size="7.90222" style="fill: #e67216; fill-opacity: 1; stroke: none;text-anchor:start;font-family:sans-serif;font-style:normal;font-weight:normal" x="80" y="83.335">
      <tspan x="80" y="83.335">speculative</tspan>
      <tspan x="80" y="93.2127">rebase &amp; merge</tspan>
    </text>
    <g>
      <line style="fill: none; stroke-opacity: 1; stroke-width: 1; stroke: #e67216" x1="80" y1="70" x2="360" y2="70"/>
      <path style="fill: #e67216; fill-opacity: 1; stroke-opacity: 1; stroke-width: 1; stroke: #e67216" fill-rule="evenodd" d="M 80 70 C 80,68.75 81.25,67.5 82.5,67.5 C 83.75,67.5 85,68.75 85,70 C 85,71.25 83.75,72.5 82.5,72.5 C 81.25,72.5 80,71.25 80,70z"/>
    </g>
    <text font-size="9.03111" style="fill: #e62d9e; fill-opacity: 1; stroke: none;text-anchor:middle;font-family:sans-serif;font-style:normal;font-weight:normal" x="320" y="117.482">
      <tspan x="320" y="117.482">PR#3 building...</tspan>
      <tspan x="320" y="128.771"></tspan>
    </text>
    <text font-size="7.90222" style="fill: #e62d9e; fill-opacity: 1; stroke: none;text-anchor:start;font-family:sans-serif;font-style:normal;font-weight:normal" x="492" y="131.335">
      <tspan x="492" y="131.335">push</tspan>
      <tspan x="492" y="141.213">new master</tspan>
    </text>
    <text font-size="7.90222" style="fill: #e62d9e; fill-opacity: 1; stroke: none;text-anchor:start;font-family:sans-serif;font-style:normal;font-weight:normal" x="140" y="131.335">
      <tspan x="140" y="131.335">speculative</tspan>
      <tspan x="140" y="141.213">rebase &amp; merge</tspan>
    </text>
    <g>
      <line style="fill: none; stroke-opacity: 1; stroke-width: 1; stroke: #e62d9e" x1="140" y1="120" x2="500" y2="120"/>
      <path style="fill: #e62d9e; fill-opacity: 1; stroke-opacity: 1; stroke-width: 1; stroke: #e62d9e" fill-rule="evenodd" d="M 140 120 C 140,118.75 141.25,117.5 142.5,117.5 C 143.75,117.5 145,118.75 145,120 C 145,121.25 143.75,122.5 142.5,122.5 C 141.25,122.5 140,121.25 140,120z"/>
      <path style="fill: #e62d9e; fill-opacity: 1; stroke-opacity: 1; stroke-width: 1; stroke: #e62d9e" fill-rule="evenodd" d="M 500 120 C 500,121.25 498.75,122.5 497.5,122.5 C 496.25,122.5 495,121.25 495,120 C 495,118.75 496.25,117.5 497.5,117.5 C 498.75,117.5 500,118.75 500,120z"/>
    </g>
    <g transform="matrix(1,0,0,1,225,7)">
      <line style="fill: none; stroke-opacity: 1; stroke-width: 2; stroke-linecap: round; stroke: #11b349" x1="183" y1="9" x2="190" y2="2"/>
      <line style="fill: none; stroke-opacity: 1; stroke-width: 2; stroke-linecap: round; stroke: #11b349" x1="180" y1="6" x2="183" y2="9"/>
    </g>
    <g transform="matrix(1,0,0,1,169,57)">
      <line style="fill: none; stroke-opacity: 1; stroke-width: 2; stroke-linecap: round; stroke: #11b349" x1="183" y1="9" x2="190" y2="2"/>
      <line style="fill: none; stroke-opacity: 1; stroke-width: 2; stroke-linecap: round; stroke: #11b349" x1="180" y1="6" x2="183" y2="9"/>
    </g>
    <g transform="matrix(1,0,0,1,305,107)">
      <line style="fill: none; stroke-opacity: 1; stroke-width: 2; stroke-linecap: round; stroke: #11b349" x1="183" y1="9" x2="190" y2="2"/>
      <line style="fill: none; stroke-opacity: 1; stroke-width: 2; stroke-linecap: round; stroke: #11b349" x1="180" y1="6" x2="183" y2="9"/>
    </g>
    <g>
      <line style="fill: none; stroke-opacity: 1; stroke-width: 1; stroke: #e67216" x1="420" y1="70" x2="430" y2="70"/>
      <path style="fill: #e67216; fill-opacity: 1; stroke-opacity: 1; stroke-width: 1; stroke: #e67216" fill-rule="evenodd" d="M 430 70 C 430,71.25 428.75,72.5 427.5,72.5 C 426.25,72.5 425,71.25 425,70 C 425,68.75 426.25,67.5 427.5,67.5 C 428.75,67.5 430,68.75 430,70z"/>
    </g>
    <line style="fill: none; stroke-opacity: 1; stroke-width: 1; stroke-dasharray: 4; stroke: #474499" x1="360" y1="70" x2="420" y2="70"/>
    <text font-size="9.03111" style="fill: #474499; fill-opacity: 1; stroke: none;text-anchor:middle;font-family:sans-serif;font-style:normal;font-weight:normal" x="390" y="78.3828">
      <tspan x="390" y="78.3828">... wait...</tspan>
    </text>
    <g>
      <line style="fill: none; stroke-opacity: 1; stroke-width: 1; stroke-dasharray: 4; stroke: #474499" x1="414.508" y1="23.661" x2="367.352" y2="55.0986"/>
      <polyline style="fill: none; stroke-opacity: 1; stroke-width: 1; stroke: #474499" points="370.083,49.312 366.422,55.7188 373.744,54.8035 "/>
    </g>
    <text font-size="9.03111" style="fill: #474499; fill-opacity: 1; stroke: none;text-anchor:start;font-family:sans-serif;font-style:normal;font-weight:normal" x="390" y="48.3828">
      <tspan x="390" y="48.3828">before!</tspan>
    </text>
    <line style="fill: none; stroke-opacity: 1; stroke-width: 1; stroke-linecap: round; stroke: #e67216" x1="360" y1="66" x2="360" y2="74"/>
    <g>
      <line style="fill: none; stroke-opacity: 1; stroke-width: 1; stroke-dasharray: 4; stroke: #474499" x1="472.225" y1="93.0703" x2="482.343" y2="105.212"/>
      <polyline style="fill: none; stroke-opacity: 1; stroke-width: 1; stroke: #474499" points="476.299,103.113 483.059,106.071 481.369,98.888 "/>
    </g>
    <text font-size="9.03111" style="fill: #474499; fill-opacity: 1; stroke: none;text-anchor:start;font-family:sans-serif;font-style:normal;font-weight:normal" x="478" y="97.8701">
      <tspan x="478" y="97.8701">after</tspan>
    </text>
    <text font-size="9.03111" style="fill: #474499; fill-opacity: 1; stroke: none;text-anchor:middle;font-family:sans-serif;font-style:normal;font-weight:normal" x="512" y="152.383">
      <tspan x="512" y="152.383">(no wait)</tspan>
    </text>
  </g>
</svg>
