<?xml version="1.0" encoding="UTF-8" standalone="no"?>
<!DOCTYPE svg PUBLIC "-//W3C//DTD SVG 1.0//EN" "http://www.w3.org/TR/2001/PR-SVG-20010719/DTD/svg10.dtd">
<svg width="31cm" height="13cm" viewBox="-1 9 602 255" xmlns="http://www.w3.org/2000/svg" xmlns:xlink="http://www.w3.org/1999/xlink">
  <g id="Background">
    <g>
      <path style="fill: none; stroke-opacity: 1; stroke-width: 1; stroke-dasharray: 2; stroke: #996687" d="M 19.2288 26.5548 C -0.771152,196.555 175.775,185.07 224.343,126.788"/>
      <polyline style="fill: none; stroke-opacity: 1; stroke-width: 1; stroke: #996687" points="223.369,133.112 225.059,125.929 218.299,128.887 "/>
    </g>
    <text font-size="9.03111" style="fill: #2d5ce6; fill-opacity: 1; stroke: none;text-anchor:middle;font-family:sans-serif;font-style:normal;font-weight:normal" x="150" y="17.482">
      <tspan x="150" y="17.482">PR#1 building...</tspan>
      <tspan x="150" y="28.7709"></tspan>
    </text>
    <g>
      <line style="fill: none; stroke-opacity: 1; stroke-width: 1; stroke: #474499" x1="0" y1="170" x2="597.764" y2="170"/>
      <polyline style="fill: none; stroke-opacity: 1; stroke-width: 1; stroke: #474499" points="588.882,175 598.882,170 588.882,165 "/>
    </g>
    <text font-size="12.4178" style="fill: #474499; fill-opacity: 1; stroke: none;text-anchor:middle;font-family:sans-serif;font-style:normal;font-weight:normal" x="300" y="181.526">
      <tspan x="300" y="181.526">. . . t i m e . . .</tspan>
    </text>
    <text font-size="7.90222" style="fill: #2d5ce6; fill-opacity: 1; stroke: none;text-anchor:start;font-family:sans-serif;font-style:normal;font-weight:normal" x="268" y="31.335">
      <tspan x="268" y="31.335">push</tspan>
      <tspan x="268" y="41.2127">new master</tspan>
    </text>
    <text font-size="7.90222" style="fill: #2d5ce6; fill-opacity: 1; stroke: none;text-anchor:start;font-family:sans-serif;font-style:normal;font-weight:normal" x="20" y="31.335">
      <tspan x="20" y="31.335">rebase</tspan>
      <tspan x="20" y="41.2127">&amp; merge</tspan>
    </text>
    <g>
      <line style="fill: none; stroke-opacity: 1; stroke-width: 1; stroke-dasharray: 6.6; stroke: #2d5ce6" x1="20" y1="190" x2="20" y2="52.2361"/>
      <polyline style="fill: none; stroke-opacity: 1; stroke-width: 1; stroke: #2d5ce6" points="23.3,57.718 20,51.118 16.7,57.718 "/>
    </g>
    <text font-size="9.03111" style="fill: #2d5ce6; fill-opacity: 1; stroke: none;text-anchor:start;font-family:sans-serif;font-style:normal;font-weight:normal" x="0" y="190">
      <tspan x="0" y="190">#1</tspan>
      <tspan x="0" y="201.289">@hoff merge</tspan>
    </text>
    <g>
      <line style="fill: none; stroke-opacity: 1; stroke-width: 1; stroke-dasharray: 6.6; stroke: #e67216" x1="80" y1="220" x2="80" y2="102.236"/>
      <polyline style="fill: none; stroke-opacity: 1; stroke-width: 1; stroke: #e67216" points="83.3,107.718 80,101.118 76.7,107.718 "/>
    </g>
    <text font-size="9.03111" style="fill: #e67216; fill-opacity: 1; stroke: none;text-anchor:start;font-family:sans-serif;font-style:normal;font-weight:normal" x="60" y="220">
      <tspan x="60" y="220">#2</tspan>
      <tspan x="60" y="231.289">@hoff merge</tspan>
    </text>
    <g>
      <line style="fill: none; stroke-opacity: 1; stroke-width: 1; stroke-dasharray: 6.6; stroke: #e62d9e" x1="140" y1="250" x2="140" y2="152.236"/>
      <polyline style="fill: none; stroke-opacity: 1; stroke-width: 1; stroke: #e62d9e" points="143.3,157.718 140,151.118 136.7,157.718 "/>
    </g>
    <text font-size="9.03111" style="fill: #e62d9e; fill-opacity: 1; stroke: none;text-anchor:start;font-family:sans-serif;font-style:normal;font-weight:normal" x="120" y="250">
      <tspan x="120" y="250">#3</tspan>
      <tspan x="120" y="261.289">@hoff merge</tspan>
    </text>
    <g>
      <line style="fill: none; stroke-opacity: 1; stroke-width: 1; stroke: #2d5ce6" x1="20" y1="20" x2="280" y2="20"/>
      <path style="fill: #2d5ce6; fill-opacity: 1; stroke-opacity: 1; stroke-width: 1; stroke: #2d5ce6" fill-rule="evenodd" d="M 20 20 C 20,18.75 21.25,17.5 22.5,17.5 C 23.75,17.5 25,18.75 25,20 C 25,21.25 23.75,22.5 22.5,22.5 C 21.25,22.5 20,21.25 20,20z"/>
      <path style="fill: #2d5ce6; fill-opacity: 1; stroke-opacity: 1; stroke-width: 1; stroke: #2d5ce6" fill-rule="evenodd" d="M 280 20 C 280,21.25 278.75,22.5 277.5,22.5 C 276.25,22.5 275,21.25 275,20 C 275,18.75 276.25,17.5 277.5,17.5 C 278.75,17.5 280,18.75 280,20z"/>
    </g>
    <text font-size="9.03111" style="fill: #e67216; fill-opacity: 1; stroke: none;text-anchor:middle;font-family:sans-serif;font-style:normal;font-weight:normal" x="150" y="67.482">
      <tspan x="150" y="67.482">PR#2 building...</tspan>
      <tspan x="150" y="78.7709"></tspan>
    </text>
    <text font-size="7.90222" style="fill: #e67216; fill-opacity: 1; stroke: none;text-anchor:start;font-family:sans-serif;font-style:normal;font-weight:normal" x="80" y="83.335">
      <tspan x="80" y="83.335">speculative</tspan>
      <tspan x="80" y="93.2127">rebase &amp; merge</tspan>
    </text>
    <g>
      <line style="fill: none; stroke-opacity: 1; stroke-width: 1; stroke: #e67216" x1="80" y1="70" x2="220" y2="70"/>
      <path style="fill: #e67216; fill-opacity: 1; stroke-opacity: 1; stroke-width: 1; stroke: #e67216" fill-rule="evenodd" d="M 80 70 C 80,68.75 81.25,67.5 82.5,67.5 C 83.75,67.5 85,68.75 85,70 C 85,71.25 83.75,72.5 82.5,72.5 C 81.25,72.5 80,71.25 80,70z"/>
    </g>
    <text font-size="6.77333" style="fill: #e62d9e; fill-opacity: 1; stroke: none;text-anchor:middle;font-family:sans-serif;font-style:normal;font-weight:normal" x="180" y="109.645">
      <tspan x="180" y="109.645">PR#3</tspan>
      <tspan x="180" y="118.112">building...</tspan>
      <tspan x="180" y="126.578"></tspan>
      <tspan x="180" y="135.045"></tspan>
    </text>
    <text font-size="7.90222" style="fill: #e62d9e; fill-opacity: 1; stroke: none;text-anchor:start;font-family:sans-serif;font-style:normal;font-weight:normal" x="440" y="131.335">
      <tspan x="440" y="131.335">push</tspan>
      <tspan x="440" y="141.213">new master</tspan>
    </text>
    <text font-size="7.90222" style="fill: #e62d9e; fill-opacity: 1; stroke: none;text-anchor:start;font-family:sans-serif;font-style:normal;font-weight:normal" x="140" y="131.335">
      <tspan x="140" y="131.335">speculative</tspan>
      <tspan x="140" y="141.213">rebase&amp;merge</tspan>
      <tspan x="140" y="151.091">atop #2</tspan>
    </text>
    <g>
      <line style="fill: none; stroke-opacity: 1; stroke-width: 1; stroke: #e62d9e" x1="140" y1="120" x2="220" y2="120"/>
      <path style="fill: #e62d9e; fill-opacity: 1; stroke-opacity: 1; stroke-width: 1; stroke: #e62d9e" fill-rule="evenodd" d="M 140 120 C 140,118.75 141.25,117.5 142.5,117.5 C 143.75,117.5 145,118.75 145,120 C 145,121.25 143.75,122.5 142.5,122.5 C 141.25,122.5 140,121.25 140,120z"/>
    </g>
    <text font-size="7.90222" style="fill: #e67216; fill-opacity: 1; stroke: none;text-anchor:start;font-family:sans-serif;font-style:normal;font-weight:normal" x="210" y="217.335">
      <tspan x="210" y="217.335">#2</tspan>
      <tspan x="210" y="227.213">speculative</tspan>
      <tspan x="210" y="237.091">build failed</tspan>
    </text>
    <g>
      <line style="fill: none; stroke-opacity: 1; stroke-width: 1; stroke-dasharray: 6.6; stroke: #e67216" x1="220" y1="80" x2="220" y2="205.764"/>
      <polyline style="fill: none; stroke-opacity: 1; stroke-width: 1; stroke: #e67216" points="216.7,200.282 220,206.882 223.3,200.282 "/>
    </g>
    <g>
      <line style="fill: none; stroke-opacity: 1; stroke-width: 2; stroke: #a8270d" x1="215" y1="75" x2="225" y2="65"/>
      <line style="fill: none; stroke-opacity: 1; stroke-width: 2; stroke: #a8270d" x1="215" y1="65" x2="225" y2="75"/>
    </g>
    <g>
      <line style="fill: none; stroke-opacity: 1; stroke-width: 1; stroke: #e62d9e" x1="228" y1="120" x2="450" y2="120"/>
      <path style="fill: #e62d9e; fill-opacity: 1; stroke-opacity: 1; stroke-width: 1; stroke: #e62d9e" fill-rule="evenodd" d="M 228 120 C 228,118.75 229.25,117.5 230.5,117.5 C 231.75,117.5 233,118.75 233,120 C 233,121.25 231.75,122.5 230.5,122.5 C 229.25,122.5 228,121.25 228,120z"/>
      <path style="fill: #e62d9e; fill-opacity: 1; stroke-opacity: 1; stroke-width: 1; stroke: #e62d9e" fill-rule="evenodd" d="M 450 120 C 450,121.25 448.75,122.5 447.5,122.5 C 446.25,122.5 445,121.25 445,120 C 445,118.75 446.25,117.5 447.5,117.5 C 448.75,117.5 450,118.75 450,120z"/>
    </g>
    <text font-size="7.90222" style="fill: #e62d9e; fill-opacity: 1; stroke: none;text-anchor:start;font-family:sans-serif;font-style:normal;font-weight:normal" x="228" y="131.335">
      <tspan x="228" y="131.335">speculative</tspan>
      <tspan x="228" y="141.213">rebase&amp;merge</tspan>
      <tspan x="228" y="151.091">atop #1</tspan>
    </text>
    <g>
      <line style="fill: none; stroke-opacity: 1; stroke-width: 2; stroke: #a8270d" x1="215" y1="125" x2="225" y2="115"/>
      <line style="fill: none; stroke-opacity: 1; stroke-width: 2; stroke: #a8270d" x1="215" y1="115" x2="225" y2="125"/>
    </g>
    <text font-size="5.64444" style="fill: #e62d9e; fill-opacity: 1; stroke: none;text-anchor:start;font-family:sans-serif;font-style:normal;font-weight:normal" x="212" y="113.239">
      <tspan x="212" y="113.239">cancel</tspan>
    </text>
    <g>
      <line style="fill: none; stroke-opacity: 1; stroke-width: 1; stroke-dasharray: 4; stroke: #474499" x1="220" y1="70" x2="277.764" y2="70"/>
      <polyline style="fill: none; stroke-opacity: 1; stroke-width: 1; stroke: #474499" points="272.282,73.3 278.882,70 272.282,66.7 "/>
    </g>
    <text font-size="9.03111" style="fill: #474499; fill-opacity: 1; stroke: none;text-anchor:middle;font-family:sans-serif;font-style:normal;font-weight:normal" x="250" y="78.3828">
      <tspan x="250" y="78.3828">... wait...</tspan>
    </text>
    <g>
      <line style="fill: none; stroke-opacity: 1; stroke-width: 1; stroke-dasharray: 6.6; stroke: #e67216" x1="280" y1="70" x2="280" y2="205.764"/>
      <polyline style="fill: none; stroke-opacity: 1; stroke-width: 1; stroke: #e67216" points="276.7,200.282 280,206.882 283.3,200.282 "/>
    </g>
    <text font-size="7.90222" style="fill: #e67216; fill-opacity: 1; stroke: none;text-anchor:start;font-family:sans-serif;font-style:normal;font-weight:normal" x="270" y="217.335">
      <tspan x="270" y="217.335">#2</tspan>
      <tspan x="270" y="227.213">build failed</tspan>
      <tspan x="270" y="237.091">for real</tspan>
    </text>
    <g>
      <line style="fill: none; stroke-opacity: 1; stroke-width: 1; stroke-dasharray: 4; stroke: #474499" x1="280" y1="46" x2="280" y2="67.7639"/>
      <polyline style="fill: none; stroke-opacity: 1; stroke-width: 1; stroke: #474499" points="276.7,62.282 280,68.882 283.3,62.282 "/>
    </g>
    <g>
      <line style="fill: none; stroke-opacity: 1; stroke-width: 1; stroke-dasharray: 2; stroke: #997356" x1="54.6669" y1="44.6669" x2="73.752" y2="63.752"/>
      <polyline style="fill: none; stroke-opacity: 1; stroke-width: 1; stroke: #997356" points="67.5422,62.2091 74.5425,64.5425 72.2091,57.5422 "/>
    </g>
    <g>
      <line style="fill: none; stroke-opacity: 1; stroke-width: 1; stroke-dasharray: 2; stroke: #996687" x1="120.667" y1="100.667" x2="133.752" y2="113.752"/>
      <polyline style="fill: none; stroke-opacity: 1; stroke-width: 1; stroke: #996687" points="127.542,112.209 134.543,114.543 132.209,107.542 "/>
    </g>
  </g>
</svg>
